<?xml version="1.0" encoding="UTF-8" standalone="no"?>
<svg width="36px" height="30px" viewBox="0 0 36 30" version="1.1" xmlns="http://www.w3.org/2000/svg" xmlns:xlink="http://www.w3.org/1999/xlink" xmlns:sketch="http://www.bohemiancoding.com/sketch/ns">
    <title>Untitled</title>
    <description>Created with Sketch (http://www.bohemiancoding.com/sketch)</description>
    <defs></defs>
    <g id="Page-1" stroke="none" stroke-width="1" fill="none" fill-rule="evenodd" sketch:type="MSPage">
        <g id="icon-twitter" sketch:type="MSLayerGroup" fill="#FFFFFF">
            <g id="Page-1" sketch:type="MSShapeGroup">
                <g id="icon-twitter">
                    <g id="Page-1">
                        <path d="M34.9980469,0.533203125 C33.5917969,1.37695312 31.9921875,1.9921875 30.3398438,2.32617188 C28.9511719,0.919921875 27.0351562,0.005859375 24.9082031,0.005859375 C20.8300781,0.005859375 17.5429688,3.29296875 17.5429688,7.37109375 C17.5429688,7.95117187 17.578125,8.54882812 17.7011719,9.07617188 C11.5839844,8.7421875 6.16992188,5.96484375 2.49609375,1.5 C1.88085938,2.58984375 1.49414062,3.71484375 1.49414062,5.0859375 C1.49414062,7.6171875 2.79492188,9.8671875 4.79882812,11.203125 C3.5859375,11.1679688 2.4609375,10.8339844 1.45898438,10.2890625 L1.45898438,10.3769531 C1.45898438,13.9628906 4.0078125,16.9511719 7.3828125,17.6191406 C6.75,17.7949219 6.08203125,17.8828125 5.4140625,17.8828125 C4.95703125,17.8828125 4.5,17.8300781 4.04296875,17.7421875 C4.95703125,20.6601562 7.71679688,22.8398438 10.9160156,22.875 C8.41992188,24.8789062 5.203125,26.3730469 1.7578125,26.3730469 C1.16015625,26.3730469 0.580078125,26.3378906 0,26.25 C3.25195312,28.3417969 7.171875,29.2558594 11.3378906,29.2558594 C24.9082031,29.2558594 32.3261719,18.0058594 32.3261719,8.25 L32.3261719,7.28320312 C33.75,6.24609375 34.9980469,4.96289062 36,3.45117188 C34.6640625,4.04882812 33.2578125,4.453125 31.7460938,4.62890625 C33.2929688,3.71484375 34.453125,2.25585938 34.9980469,0.533203125 Z" id="twitter"></path>
                    </g>
                </g>
            </g>
        </g>
    </g>
</svg>