<?xml version="1.0" encoding="UTF-8" standalone="no"?>
<svg width="402px" height="152px" viewBox="0 0 402 152" version="1.1" xmlns="http://www.w3.org/2000/svg" xmlns:xlink="http://www.w3.org/1999/xlink" xmlns:sketch="http://www.bohemiancoding.com/sketch/ns">
    <title>Untitled 2</title>
    <description>Created with Sketch (http://www.bohemiancoding.com/sketch)</description>
    <defs>
        <linearGradient x1="50%" y1="0%" x2="50%" y2="100%" id="linearGradient-1">
            <stop stop-color="#FFFFFF" offset="0%"></stop>
            <stop stop-color="#F9FCFF" offset="100%"></stop>
        </linearGradient>
    </defs>
    <g id="Page-1" stroke="none" stroke-width="1" fill="none" fill-rule="evenodd" sketch:type="MSPage">
        <g id="illustration-editor" sketch:type="MSLayerGroup" transform="translate(1.000000, 0.000000)">
            <g id="Page-1" sketch:type="MSShapeGroup">
                <g id="illustration-editor">
                    <g id="Page-1">
                        <rect id="Rectangle-3" fill="url(#linearGradient-1)" x="0" y="0" width="102" height="152" rx="3"></rect>
                        <rect id="Rectangle-1" stroke="#97A8B9" stroke-width="2" x="0" y="1" width="400" height="150" rx="3"></rect>
                        <path d="M101.000008,1.99058837 L101.000001,151.990588" id="Line" stroke="#97A8B9" stroke-width="2"></path>
                        <g id="folder" transform="translate(22.000000, 22.000000)" stroke="#97A8B9" stroke-width="2">
                            <path d="M0,3.453125 L0,13 L15,13 L15,2.84375 L9.25,2.84375 L7.5,0 L0,0 L0,3.453125 L0,3.453125 Z" id="folder-ico"></path>
                        </g>
                        <g id="file" transform="translate(42.000000, 49.000000)" stroke="#97A8B9" stroke-width="2">
                            <path d="M0,0 L0,15 L10,15 L10,3.34458295 L6.9936899,0 L0,0 Z" id="Rectangle-4"></path>
                            <path d="M6,1 L6,5 L10,5" id="Path-3"></path>
                        </g>
                        <g id="branch" transform="translate(22.000000, 46.000000)" stroke="#97A8B9" stroke-width="2">
                            <circle id="Oval-1" cx="2.5" cy="2.5" r="2.5"></circle>
                            <circle id="Oval-1" cx="2.5" cy="16.5" r="2.5"></circle>
                            <circle id="Oval-1" cx="10.5" cy="5.5" r="2.5"></circle>
                            <path d="M3,5 L2.99999961,14" id="Line"></path>
                            <path d="M8.91666667,7 C8.91666655,10.25 3.49999989,10.7943115 3.5,13.5" id="Line"></path>
                        </g>
                    </g>
                </g>
            </g>
        </g>
        <text id="$" sketch:type="MSTextLayer" font-family="Adelle Sans" font-size="18" font-weight="bold" fill="#97A8B9">
            <tspan x="122" y="37">$</tspan>
        </text>
        <rect id="Rectangle-2" fill-opacity="0.2" fill="#97A8B9" sketch:type="MSShapeGroup" x="135" y="22" width="10" height="18"></rect>
    </g>
</svg>